<?xml version="1.0" encoding="UTF-8"?>
<svg xmlns="http://www.w3.org/2000/svg" viewBox="0 0 24 24" width="24" height="24"><path d="M19.14 12.94c.04-.3.06-.61.06-.94 0-.32-.02-.64-.07-.94l2.03-1.58a.9.9 0 0 0-.11-1.45l-1.97-.81a.9.9 0 0 0-1.07.36l-1.24 2.14c-.36-.08-.73-.13-1.1-.16l-.28-2.28a.9.9 0 0 0-.89-.82h-3.94a.9.9 0 0 0-.89.82l-.28 2.28c-.37-.03-.74-.08-1.1-.16L5.45 4.86a.9.9 0 0 0-1.07-.36l-1.97.81a.9.9 0 0 0-.11 1.45l2.03 1.58c-.05.3-.09.63-.09.94s.02.64.07.94l-2.03 1.58a.9.9 0 0 0 .11 1.45l1.97.81c.32.13.69.13 1.01 0l1.24-2.14c.36.08.73.13 1.1.16l.28 2.28c.09.78.8.82 1.4.82h3.94c.6 0 1.31-.04 1.4-.82l.28-2.28c.37.03.74.08 1.1.16l1.24 2.14c.32.13.69.13 1.01 0l1.97-.81a.9.9 0 0 0 .11-1.45l-2.01-1.58zM12 15.6c-1.98 0-3.6-1.62-3.6-3.6s1.62-3.6 3.6-3.6 3.6 1.62 3.6 3.6-1.62 3.6-3.6 3.6z" fill="#5B4E9F"/></svg>
